<svg width="20" height="20" viewBox="0 0 20 20" fill="none" xmlns="http://www.w3.org/2000/svg">
<path d="M10.0002 11.6668C10.9206 11.6668 11.6668 10.9206 11.6668 10.0002C11.6668 9.07969 10.9206 8.3335 10.0002 8.3335C9.07969 8.3335 8.3335 9.07969 8.3335 10.0002C8.3335 10.9206 9.07969 11.6668 10.0002 11.6668Z" fill="#747474"/>
<path d="M5.00016 11.6668C5.92064 11.6668 6.66683 10.9206 6.66683 10.0002C6.66683 9.07969 5.92064 8.3335 5.00016 8.3335C4.07969 8.3335 3.3335 9.07969 3.3335 10.0002C3.3335 10.9206 4.07969 11.6668 5.00016 11.6668Z" fill="#747474"/>
<path d="M15.0002 11.6668C15.9206 11.6668 16.6668 10.9206 16.6668 10.0002C16.6668 9.07969 15.9206 8.3335 15.0002 8.3335C14.0797 8.3335 13.3335 9.07969 13.3335 10.0002C13.3335 10.9206 14.0797 11.6668 15.0002 11.6668Z" fill="#747474"/>
</svg>
